<?xml version="1.0" standalone="no"?>
<!DOCTYPE svg PUBLIC "-//W3C//DTD SVG 20010904//EN"
 "http://www.w3.org/TR/2001/REC-SVG-20010904/DTD/svg10.dtd">
<svg version="1.0" xmlns="http://www.w3.org/2000/svg"
 width="320.000000pt" height="282.000000pt" viewBox="0 0 320.000000 282.000000"
 preserveAspectRatio="xMidYMid meet">

<g transform="translate(0.000000,282.000000) scale(0.100000,-0.100000)"
fill="#000000" stroke="none">
<path d="M1789 2239 c157 -418 180 -474 202 -480 13 -5 44 -13 69 -19 l44 -12
-34 -15 c-19 -9 -59 -15 -87 -15 l-53 1 0 -35 c0 -19 -7 -46 -16 -60 -26 -39
-18 -80 72 -385 3 -11 -5 -20 -26 -29 l-30 -12 0 -139 c0 -77 3 -139 6 -139 3
0 71 50 149 111 l144 110 4 97 c2 55 12 122 22 155 26 82 16 87 -85 48 -95
-36 -90 -35 -90 -17 0 8 15 20 34 26 28 9 37 19 50 57 17 50 21 83 9 83 -5 0
-32 -9 -61 -20 -59 -22 -72 -24 -72 -10 0 5 21 20 48 32 43 21 49 28 66 81 17
53 42 75 50 45 76 -281 100 -364 105 -370 3 -4 24 2 46 12 l40 19 5 -50 5 -50
125 96 c69 52 155 120 191 150 63 52 68 54 98 44 l31 -11 -302 -240 c-167
-133 -304 -242 -306 -243 -3 -3 77 -857 81 -861 11 -11 241 -134 244 -130 2 2
-17 190 -42 417 -25 228 -46 426 -48 441 -2 21 45 89 230 330 193 253 238 306
268 316 44 17 80 63 96 125 11 44 10 51 -8 75 -31 42 -75 62 -149 68 -38 3
-85 11 -104 16 -34 11 -34 11 -10 20 14 5 44 7 67 3 36 -5 44 -3 57 17 8 13
17 39 21 59 9 50 -10 63 -84 56 -101 -9 -161 -50 -187 -131 l-17 -51 -14 43
c-8 23 -19 42 -23 42 -5 0 -24 -13 -43 -29 l-33 -30 -204 52 -204 52 -255 372
c-141 204 -259 374 -263 378 -3 4 74 -206 171 -466z m1141 -549 c0 -5 -18 -10
-39 -10 -22 0 -43 5 -46 10 -4 6 12 10 39 10 25 0 46 -4 46 -10z m-132 -41
c-6 -17 -25 -39 -42 -50 -29 -18 -31 -18 -38 -1 -14 36 -9 41 89 81 1 1 -3
-13 -9 -30z m-322 -10 c67 -17 87 -27 94 -43 6 -17 3 -22 -14 -27 -11 -4 -51
-18 -88 -32 l-67 -26 -16 57 c-9 31 -18 65 -21 75 -7 22 7 22 112 -4z m111
-121 c-3 -8 -6 -5 -6 6 -1 11 2 17 5 13 3 -3 4 -12 1 -19z"/>
<path d="M1503 2664 c-11 -16 -113 -180 -228 -364 -115 -184 -210 -337 -211
-339 -2 -2 -205 -64 -451 -137 l-448 -133 100 5 c55 3 284 14 509 24 309 14
412 22 421 32 7 7 106 162 219 343 158 253 206 335 201 352 -3 13 -25 73 -48
134 l-43 112 -21 -29z"/>
<path d="M1593 1687 l-153 -9 0 -104 c0 -80 3 -104 13 -104 8 0 47 11 87 25
40 14 75 25 77 25 1 0 -7 -21 -19 -46 l-23 -45 28 -107 c48 -187 67 -242 86
-242 20 1 63 36 85 72 17 25 16 30 -8 108 l-26 81 50 62 c61 76 92 137 88 174
-3 27 -5 28 -55 28 l-53 -1 0 48 c0 33 -4 47 -12 46 -7 0 -82 -5 -165 -11z
m167 -212 c0 -9 -8 -27 -17 -42 -16 -23 -17 -24 -24 -7 -4 11 -8 29 -8 42 -1
17 5 22 24 22 16 0 25 -6 25 -15z"/>
<path d="M920 1654 c-140 -7 -272 -14 -293 -16 l-38 -3 142 -165 c78 -91 145
-169 149 -173 4 -5 91 18 194 50 l186 57 0 133 0 133 -42 -1 c-24 -1 -158 -8
-298 -15z"/>
<path d="M279 1621 l-76 -6 229 -270 c125 -148 233 -278 239 -288 7 -12 -12
-3 -50 22 -33 23 -68 41 -77 41 -23 0 -102 -83 -110 -116 -11 -42 79 -363 103
-371 15 -5 90 62 98 87 5 16 -2 45 -41 174 -4 13 20 1 81 -40 l87 -59 -6 -145
c-3 -80 -8 -253 -11 -385 l-5 -240 100 360 c140 504 131 474 141 448 12 -33
36 -28 81 17 37 36 40 44 35 78 -3 20 -9 46 -12 57 -5 16 0 23 23 31 23 9 34
24 49 63 l19 52 12 -40 c34 -110 143 -162 240 -112 48 25 114 94 143 151 32
62 33 167 1 227 -49 94 -154 121 -243 64 -78 -50 -136 -131 -148 -209 -6 -34
-25 -46 -123 -78 -37 -11 -17 22 25 41 44 21 69 59 80 120 10 54 -3 59 -73 31
-35 -14 -69 -26 -77 -26 -21 0 -89 -67 -107 -105 -10 -19 -18 -35 -20 -35 -2
0 -92 106 -200 235 l-198 235 -66 -2 c-37 -1 -101 -4 -143 -7z m1147 -334 c44
-48 67 -140 48 -191 -11 -28 -69 -20 -109 15 -51 45 -65 78 -65 155 l0 67 47
-6 c38 -4 54 -12 79 -40z"/>
<path d="M1598 1007 l-158 -82 0 -209 c0 -165 3 -206 13 -199 6 5 81 63 165
128 l152 118 0 163 c0 90 -3 164 -7 164 -5 -1 -79 -38 -165 -83z"/>
<path d="M319 1007 c-15 -12 -34 -34 -43 -48 -16 -25 -15 -34 29 -190 25 -90
48 -172 51 -181 9 -30 40 -20 83 27 22 24 41 47 41 50 0 4 -80 295 -96 348 -7
23 -34 21 -65 -6z"/>
<path d="M1135 769 c-60 -32 -113 -59 -117 -61 -3 -2 -45 -147 -92 -323 -48
-176 -89 -328 -92 -338 -3 -10 91 57 210 150 l216 168 0 233 c0 127 -3 231 -7
231 -5 -1 -57 -28 -118 -60z"/>
</g>
</svg>
