<?xml version="1.0" standalone="no"?>
<!DOCTYPE svg PUBLIC "-//W3C//DTD SVG 20010904//EN"
 "http://www.w3.org/TR/2001/REC-SVG-20010904/DTD/svg10.dtd">
<svg version="1.0" xmlns="http://www.w3.org/2000/svg"
 width="581.000000pt" height="87.000000pt" viewBox="0 0 581.000000 87.000000"
 preserveAspectRatio="xMidYMid meet">
<metadata>
Created by potrace 1.16, written by Peter Selinger 2001-2019
</metadata>
<g transform="translate(0.000000,87.000000) scale(0.100000,-0.100000)"
fill="#000000" stroke="none">
<path d="M451 820 c11 -30 30 -80 42 -110 11 -30 29 -70 39 -89 15 -26 16 -36
7 -47 -22 -26 6 -39 30 -15 l21 21 92 -22 93 -21 -42 -20 c-44 -22 -56 -36
-44 -56 5 -8 30 5 80 40 40 28 75 49 77 46 2 -2 -43 -36 -101 -76 -57 -39
-107 -76 -111 -82 -3 -6 0 -64 7 -130 l12 -120 35 -15 c19 -7 39 -14 44 -14 9
0 6 85 -8 199 -6 51 -5 55 29 90 19 20 53 62 77 93 23 32 46 58 50 58 4 0 11
7 14 16 4 11 2 15 -8 11 -8 -3 -20 0 -26 8 -6 7 -27 16 -48 19 -90 14 -191 42
-209 58 -8 7 -39 44 -69 83 -29 38 -65 84 -79 100 l-25 30 21 -55z"/>
<path d="M336 759 c-37 -54 -75 -103 -84 -108 -10 -4 -59 -19 -111 -31 -52
-13 -106 -29 -120 -37 -24 -12 -21 -13 38 -13 35 0 61 -3 57 -7 -10 -10 85
-103 106 -103 36 0 108 25 108 37 0 7 0 14 0 16 1 1 5 19 10 40 7 33 6 36 -7
26 -9 -9 -46 -12 -106 -11 -120 3 -126 12 -6 12 92 0 94 1 110 28 9 15 38 58
64 95 47 66 48 69 36 107 -6 22 -15 41 -20 44 -4 3 -38 -40 -75 -95z"/>
<path d="M33 553 c-32 -4 -33 -5 -19 -31 8 -15 44 -56 81 -92 l66 -65 -1 -115
c-1 -63 -1 -126 0 -140 2 -26 7 -12 65 178 l29 93 -89 89 c-49 50 -92 89 -95
88 -3 0 -20 -3 -37 -5z"/>
<path d="M278 309 c-23 -12 -38 -26 -38 -37 0 -10 -3 -22 -7 -26 -9 -9 -42
-139 -37 -145 2 -2 33 19 70 47 l67 50 1 66 c1 39 -3 66 -9 65 -5 -1 -27 -10
-47 -20z"/>
</g>
</svg>
